<svg xmlns="http://www.w3.org/2000/svg" version="1.1" xmlns:xlink="http://www.w3.org/1999/xlink" width="1000" height="1000"><style>
    #light-icon {
      display: inline;
    }
    #dark-icon {
      display: none;
    }

    @media (prefers-color-scheme: dark) {
      #light-icon {
        display: none;
      }
      #dark-icon {
        display: inline;
      }
    }
  </style><g id="light-icon"><svg xmlns="http://www.w3.org/2000/svg" version="1.1" xmlns:xlink="http://www.w3.org/1999/xlink" width="1000" height="1000"><g clip-path="url(#SvgjsClipPath1276)"><rect width="1000" height="1000" fill="#000000"></rect><g transform="matrix(0.42613636363636365,0,0,0.42613636363636365,50,82.38636363636363)"><svg xmlns="http://www.w3.org/2000/svg" version="1.1" xmlns:xlink="http://www.w3.org/1999/xlink" width="2112" height="1960"><svg version="1.1" xmlns="http://www.w3.org/2000/svg" width="2112" height="1960">
<path d="M0 0 C696.96 0 1393.92 0 2112 0 C2112 646.8 2112 1293.6 2112 1960 C1415.04 1960 718.08 1960 0 1960 C0 1313.2 0 666.4 0 0 Z " fill="#000000" transform="translate(0,0)"></path>
<path d="M0 0 C2.23445628 0.2485235 4.46934099 0.46495874 6.70800781 0.67138672 C17.00257968 1.73739268 26.56562887 4.2358727 36.41894531 7.26904297 C37.0725 7.46369141 37.72605469 7.65833984 38.39941406 7.85888672 C59.08616481 14.04358539 76.99908716 24.30792433 93.41894531 38.26904297 C94.19882813 38.92646484 94.97871094 39.58388672 95.78222656 40.26123047 C100.79411695 44.5908299 105.24409209 49.13143534 109.41894531 54.26904297 C110.16789062 55.18041016 110.91683594 56.09177734 111.68847656 57.03076172 C118.78348714 65.93583799 124.64921256 75.46579366 130.41894531 85.26904297 C126.25901606 89.67919799 121.53412568 92.44261028 116.35644531 95.51904297 C115.44572266 96.07333984 114.535 96.62763672 113.59667969 97.19873047 C112.72205078 97.72208984 111.84742188 98.24544922 110.94628906 98.78466797 C110.14956787 99.26194336 109.35284668 99.73921875 108.53198242 100.23095703 C106.41894531 101.26904297 106.41894531 101.26904297 103.41894531 101.26904297 C101.72201642 98.83969183 100.21628703 96.44866438 98.73144531 93.89404297 C94.72708594 87.25441083 90.50132759 81.14491971 85.41894531 75.26904297 C84.74605469 74.46337891 84.07316406 73.65771484 83.37988281 72.82763672 C59.30102374 44.85238045 24.4452795 32.42895657 -11.58105469 29.26904297 C-14.59198889 29.1239549 -17.59815853 29.08244306 -20.61230469 29.06591797 C-21.86448792 29.05736786 -21.86448792 29.05736786 -23.14196777 29.04864502 C-24.89997112 29.03926212 -26.65799152 29.03268801 -28.41601562 29.02880859 C-31.04687932 29.0191682 -33.67693816 28.98810717 -36.30761719 28.95654297 C-65.69053489 28.77230294 -94.96887797 36.59618272 -116.83105469 57.08154297 C-126.79690439 67.53751643 -132.23068717 79.455062 -132.05395508 93.8515625 C-131.54136718 106.31758903 -127.13944612 117.0752452 -118.20605469 125.83154297 C-112.14012883 130.86497081 -104.69894777 134.00277597 -97.58105469 137.26904297 C-96.55109375 137.75888672 -95.52113281 138.24873047 -94.45996094 138.75341797 C-83.77571735 143.2359486 -72.17729155 145.37253711 -60.83105469 147.45654297 C-60.06335754 147.59977997 -59.2956604 147.74301697 -58.50469971 147.89059448 C-46.51782215 150.10647801 -34.48025751 151.88608306 -22.40136719 153.51123047 C-21.68916519 153.6072159 -20.9769632 153.70320133 -20.24317932 153.80209541 C-13.04954371 154.76963579 -5.85404992 155.72041289 1.34667492 156.63376045 C24.9461304 159.63556967 48.55430488 163.25621419 71.10644531 171.08154297 C72.97574707 171.71938721 72.97574707 171.71938721 74.8828125 172.37011719 C88.76807572 177.24496162 101.49062127 183.20744807 112.41894531 193.26904297 C113.26972656 194.03990234 114.12050781 194.81076172 114.99707031 195.60498047 C127.81355442 207.76912856 136.16631319 224.0284161 136.75488281 241.86669922 C137.05322177 266.14403152 133.29833206 286.85819312 116.41894531 305.26904297 C115.81695313 305.95095703 115.21496094 306.63287109 114.59472656 307.33544922 C91.48681031 332.09047061 54.79385987 341.80630799 22.41894531 346.26904297 C21.3853186 346.4147876 21.3853186 346.4147876 20.33081055 346.56347656 C-34.90424599 353.22348879 -94.44039279 341.52073777 -138.81030273 307.10107422 C-143.94430436 303.04835807 -148.82919565 298.76467431 -153.58105469 294.26904297 C-154.39058594 293.51236328 -155.20011719 292.75568359 -156.03417969 291.97607422 C-165.33937197 283.00739046 -172.99067884 272.82965854 -180.20605469 262.14404297 C-180.63208984 261.51667236 -181.058125 260.88930176 -181.49707031 260.24291992 C-183.42325224 257.32786412 -185.07609346 254.76894663 -185.58105469 251.26904297 C-179.84452778 247.15830595 -174.02848592 243.1639564 -168.14355469 239.26904297 C-167.54075684 238.85920166 -166.93795898 238.44936035 -166.31689453 238.02709961 C-164.78816973 237.02698518 -163.18782625 236.13824579 -161.58105469 235.26904297 C-157.54340873 236.61492495 -156.48330469 239.23264939 -154.39355469 242.70654297 C-150.51741649 248.93176003 -146.35592279 254.6891099 -141.58105469 260.26904297 C-140.89527344 261.07728516 -140.20949219 261.88552734 -139.50292969 262.71826172 C-116.63593527 288.91659884 -86.28881035 304.82021616 -52.58105469 312.26904297 C-51.75911621 312.4651416 -50.93717773 312.66124023 -50.09033203 312.86328125 C-10.04805962 322.20367781 37.98518095 318.7307192 73.65478516 297.37451172 C86.31810289 289.43934666 95.0923829 279.22644211 100.41894531 265.26904297 C100.68578125 264.57166016 100.95261719 263.87427734 101.22753906 263.15576172 C104.53885599 252.49103753 103.0074176 240.58013604 98.16503906 230.71435547 C88.09605781 212.66152259 69.41645565 205.22577305 50.42675781 199.81201172 C22.57241209 192.35327255 -6.58945436 189.19676134 -35.15112305 185.60961914 C-75.17063884 180.55630968 -123.67404611 173.80926147 -151.58105469 141.26904297 C-162.14953903 127.43868075 -166.9936888 111.27839026 -166.89355469 94.01904297 C-166.88864014 93.01123779 -166.88372559 92.00343262 -166.87866211 90.96508789 C-166.53521635 69.00745567 -157.90607503 50.85513691 -142.58105469 35.26904297 C-141.9171875 34.59228516 -141.25332031 33.91552734 -140.56933594 33.21826172 C-104.33902021 -1.21779076 -46.91920131 -5.3117767 0 0 Z " fill="#FCFCFC" transform="translate(1271.5810546875,774.73095703125)"></path>
<path d="M0 0 C2.66583041 2.66583041 3.95898775 4.48188583 5.6796875 7.734375 C6.18951172 8.68892578 6.69933594 9.64347656 7.22460938 10.62695312 C8.04155273 12.17286133 8.04155273 12.17286133 8.875 13.75 C13.31707687 22.05953186 17.83308899 30.31459506 22.5 38.5 C27.56364919 47.39791566 32.48131026 56.36660455 37.34033203 65.37768555 C41.69008351 73.44200129 46.11702704 81.45986086 50.58349609 89.45996094 C52.8210371 93.472263 55.05081285 97.48887269 57.28125 101.50512695 C58.55039472 103.79033515 59.81992498 106.07532928 61.08984375 108.36010742 C64.12884656 113.82792865 67.16564858 119.2969275 70.1943512 124.77046204 C71.58523249 127.28381521 72.97733623 129.79649027 74.36953735 132.30911255 C75.03744946 133.51537637 75.70475143 134.72197824 76.37142944 135.92892456 C77.29557989 137.60189382 78.22195216 139.27363517 79.1484375 140.9453125 C79.67614746 141.89937988 80.20385742 142.85344727 80.74755859 143.83642578 C81.82346461 145.90936936 81.82346461 145.90936936 83 147 C83.35602295 146.33282959 83.7120459 145.66565918 84.07885742 144.97827148 C90.41266094 133.1240411 96.77516848 121.29863582 103.4375 109.625 C108.32698485 101.05186266 113.0459899 92.39644329 117.6875 83.6875 C122.47785996 74.70046872 127.31606332 65.74681473 132.2890625 56.859375 C134.44571971 53.00358355 136.58129374 49.13638197 138.7109375 45.265625 C147.04436384 30.12142119 155.45148162 15.02433206 164 0 C164.33 0 164.66 0 165 0 C165 110.22 165 220.44 165 334 C153.45 334 141.9 334 130 334 C129.67 266.35 129.34 198.7 129 129 C121.575 143.355 121.575 143.355 114 158 C108 169 108 169 105.125 174.21875 C102.70935823 178.64637538 100.37210186 183.11027539 98.0625 187.59375 C97.72524902 188.24843262 97.38799805 188.90311523 97.04052734 189.57763672 C95.37843795 192.80881481 93.72288006 196.04320128 92.07421875 199.28125 C91.46616625 200.46876045 90.85809423 201.65626092 90.25 202.84375 C89.71890625 203.88724609 89.1878125 204.93074219 88.640625 206.00585938 C86.91789811 209.14983594 85.02884833 212.04714357 83 215 C80.15429269 211.62283306 77.96403683 208.31460295 75.96875 204.37890625 C75.1331958 202.74550293 75.1331958 202.74550293 74.28076172 201.07910156 C73.69311035 199.91862305 73.10545898 198.75814453 72.5 197.5625 C71.24590307 195.10876394 69.98680992 192.6576132 68.7265625 190.20703125 C68.25357224 189.28614212 68.25357224 189.28614212 67.77102661 188.34664917 C64.89573475 182.76407608 61.90549661 177.24943477 58.875 171.75 C54.15711366 163.17934418 49.58727691 154.53976388 45.09521484 145.84863281 C44.40032959 144.50623535 44.40032959 144.50623535 43.69140625 143.13671875 C43.29123291 142.36030029 42.89105957 141.58388184 42.47875977 140.78393555 C40.3759987 136.82524569 38.1768957 132.91841225 36 129 C35.67 196.65 35.34 264.3 35 334 C23.45 334 11.9 334 0 334 C0 223.78 0 113.56 0 0 Z " fill="#FCFCFC" transform="translate(647,777)"></path>
<path d="M0 0 C3.00540507 3.00540507 4.61448711 4.70895497 6.55859375 8.2109375 C7.01967529 9.03142578 7.48075684 9.85191406 7.95581055 10.69726562 C8.44476807 11.58091797 8.93372559 12.46457031 9.4375 13.375 C10.51419826 15.28986543 11.59236893 17.20390356 12.671875 19.1171875 C13.22423828 20.0978418 13.77660156 21.07849609 14.34570312 22.08886719 C16.90467673 26.59199607 19.54214725 31.04723009 22.1875 35.5 C27.31926754 44.15062687 32.41809504 52.82003008 37.5 61.5 C42.48336862 70.00987981 47.47675598 78.51356992 52.5 87 C57.43702507 95.34227071 62.34932757 103.69884253 67.25 112.0625 C67.6063855 112.67070587 67.962771 113.27891174 68.32995605 113.9055481 C71.25532466 118.89834093 74.1796791 123.8917276 77.10400391 128.88513184 C79.65220484 133.23619339 82.20078989 137.58702961 84.75 141.9375 C85.10670776 142.54626984 85.46341553 143.15503967 85.83093262 143.78225708 C90.87882663 152.39582488 95.94649352 160.99747822 101.0324707 169.58862305 C106.41392654 178.68530638 111.75363405 187.80641119 117.08984375 196.9296875 C117.77734248 198.10416741 118.46484243 199.27864661 119.15234375 200.453125 C119.75038818 201.47567383 120.34843262 202.49822266 120.96459961 203.55175781 C123.61905618 208.04876448 126.31330688 212.52217813 129 217 C129.495 112.06 129.495 112.06 130 5 C141.55 5 153.1 5 165 5 C165 115.22 165 225.44 165 339 C161.94236269 335.94236269 159.99931498 332.83093144 157.875 329.125 C156.97807463 327.58060716 156.08092169 326.03634647 155.18359375 324.4921875 C154.6819873 323.62561523 154.18038086 322.75904297 153.66357422 321.86621094 C150.79911275 316.93096326 147.90642235 312.0122424 145.0178833 307.09106445 C143.186516 303.9702598 141.35690762 300.84842465 139.52734375 297.7265625 C138.97089172 296.77713776 138.97089172 296.77713776 138.40319824 295.80853271 C136.12600242 291.92273994 133.85025981 288.03609957 131.57550049 284.14888 C122.51569552 268.6257004 122.51569552 268.6257004 113.3125 253.1875 C109.03705223 246.09990303 104.87229805 238.94945906 100.70751953 231.79638672 C94.26227482 220.72667466 87.78202976 209.67761767 81.30062866 198.62905884 C78.683434 194.16702241 76.06966387 189.70299008 73.45703125 185.23828125 C64.95187909 170.67312156 64.95187909 170.67312156 56.3125 156.1875 C52.31113066 149.55801234 48.40243754 142.87564442 44.5 136.1875 C43.87520752 135.11717529 43.25041504 134.04685059 42.60668945 132.9440918 C38.12915051 125.25830102 38.12915051 125.25830102 37 123 C36.67 192.63 36.34 262.26 36 334 C24.12 334 12.24 334 0 334 C0 223.78 0 113.56 0 0 Z " fill="#FBFBFB" transform="translate(1581,777)"></path>
<path d="M0 0 C11.55 0 23.1 0 35 0 C35.33 53.46 35.66 106.92 36 162 C40.95 152.76 45.9 143.52 51 134 C57.5 122.5 57.5 122.5 60.68359375 116.91015625 C64.41434315 110.30873704 67.9945047 103.62773131 71.5625 96.9375 C71.88058624 96.34113739 72.19867249 95.74477478 72.52639771 95.13034058 C73.47861791 93.34474989 74.43073177 91.55910255 75.3828125 89.7734375 C83.4254533 74.69084179 91.69047807 59.72963566 99.96228027 44.77191162 C105.29023235 35.13669404 110.55987155 25.47168045 115.75170898 15.76220703 C116.23969971 14.8545459 116.72769043 13.94688477 117.23046875 13.01171875 C117.85538208 11.84322388 117.85538208 11.84322388 118.49291992 10.65112305 C118.99025635 9.77625244 119.48759277 8.90138184 120 8 C120.31697342 7.31874054 120.63394684 6.63748108 120.96052551 5.93557739 C123.80819127 0.41678239 123.80819127 0.41678239 126.98884583 -0.69551086 C129.44344454 -0.92747618 131.77566711 -0.90099641 134.23828125 -0.78125 C135.11904831 -0.76993042 135.99981537 -0.75861084 136.90727234 -0.74694824 C139.71125994 -0.70227979 142.51006814 -0.60195033 145.3125 -0.5 C147.21672283 -0.45985999 149.12102611 -0.4233601 151.02539062 -0.390625 C155.68557916 -0.3025772 160.34191271 -0.16460791 165 0 C163.59834166 3.68531541 161.94900142 7.12006354 160.0859375 10.59375 C159.49796387 11.69170898 158.90999023 12.78966797 158.30419922 13.92089844 C157.66130491 15.11402504 157.01823354 16.30705625 156.375 17.5 C155.70455897 18.74770477 155.0341494 19.99542643 154.36376953 21.24316406 C148.93188486 31.33679468 143.4035783 41.37635905 137.85205078 51.40454102 C133.61380935 59.06203411 129.41146509 66.7379421 125.25 74.4375 C124.72043701 75.41726807 124.19087402 76.39703613 123.64526367 77.40649414 C122.60216231 79.33672362 121.55911124 81.26698027 120.51611328 83.19726562 C113.09751226 96.91152322 105.58754532 110.57507135 98.04229736 124.21994019 C92.59917526 134.06498668 87.2175852 143.94124537 81.89672852 153.85302734 C81.39584717 154.78324707 80.89496582 155.7134668 80.37890625 156.671875 C79.9413501 157.4875293 79.50379395 158.30318359 79.05297852 159.14355469 C78 161 78 161 77 162 C77.38988907 167.09436804 78.59228129 170.69402267 81.10546875 175.11328125 C81.57883667 175.95772545 81.57883667 175.95772545 82.06176758 176.81922913 C83.09387915 178.65604557 84.1407309 180.48400424 85.1875 182.3125 C86.28707056 184.26202125 87.38263371 186.21376056 88.47810364 188.16558838 C89.2243736 189.49455417 89.97193126 190.82279765 90.7207489 192.15032959 C94.30394848 198.508932 97.75251994 204.93508358 101.1875 211.375 C105.48028536 219.3947612 109.86517135 227.35034933 114.375 235.25 C119.77989493 244.71914364 124.9276691 254.30936235 130.02920532 263.94366455 C134.42487328 272.23955199 138.90420366 280.47243982 143.5625 288.625 C148.61574327 297.4703707 153.49984605 306.39722268 158.3125 315.375 C158.64968048 316.00239075 158.98686096 316.62978149 159.33425903 317.27618408 C160.28396239 319.04474601 161.22996344 320.81529456 162.17578125 322.5859375 C162.72145752 323.6073584 163.26713379 324.6287793 163.8293457 325.68115234 C165 328 165 328 165 329 C151.47 329 137.94 329 124 329 C122.5975 326.31875 121.195 323.6375 119.75 320.875 C114.97203297 311.77581258 110.06911308 302.74838702 105.1328125 293.734375 C103.01000486 289.85609195 100.90148277 285.97053254 98.8046875 282.078125 C93.55070369 272.32708051 88.24308266 262.61863877 82.75 253 C77.0911042 243.08241014 71.73040853 233.02154665 66.40463257 222.92300415 C61.3068627 213.26242877 56.10370414 203.67933676 50.63671875 194.22070312 C45.48794229 185.26723688 40.82672173 176.1707713 36 167 C35.67 220.46 35.34 273.92 35 329 C23.45 329 11.9 329 0 329 C0 220.43 0 111.86 0 0 Z " fill="#FDFDFD" transform="translate(1816,782)"></path>
<path d="M0 0 C54.12 0 108.24 0 164 0 C164 10.23 164 20.46 164 31 C121.43 31 78.86 31 35 31 C35 69.94 35 108.88 35 149 C77.57 149 120.14 149 164 149 C164 159.23 164 169.46 164 180 C121.43 180 78.86 180 35 180 C35 218.94 35 257.88 35 298 C77.57 298 120.14 298 164 298 C164 308.23 164 318.46 164 329 C109.88 329 55.76 329 0 329 C0 220.43 0 111.86 0 0 Z " fill="#FCFCFC" transform="translate(882,782)"></path>
<path d="M0 0 C108.57 0 217.14 0 329 0 C329 10.23 329 20.46 329 31 C280.49 31 231.98 31 182 31 C182 129.34 182 227.68 182 329 C170.45 329 158.9 329 147 329 C147 230.66 147 132.32 147 31 C98.49 31 49.98 31 0 31 C0 20.77 0 10.54 0 0 Z " fill="#FCFCFC" transform="translate(152,782)"></path>
<path d="M0 0 C11.55 0 23.1 0 35 0 C35 108.57 35 217.14 35 329 C23.45 329 11.9 329 0 329 C0 220.43 0 111.86 0 0 Z " fill="#FBFBFB" transform="translate(1476,782)"></path>
<path d="M0 0 C11.55 0 23.1 0 35 0 C35 108.57 35 217.14 35 329 C23.45 329 11.9 329 0 329 C0 220.43 0 111.86 0 0 Z " fill="#FDFDFD" transform="translate(542,782)"></path>
</svg></svg></g></g><defs><clipPath id="SvgjsClipPath1276"><rect width="1000" height="1000" x="0" y="0" rx="150" ry="150"></rect></clipPath></defs></svg></g><g id="dark-icon"><svg xmlns="http://www.w3.org/2000/svg" version="1.1" xmlns:xlink="http://www.w3.org/1999/xlink" width="1000" height="1000"><g><g transform="matrix(0.4734848484848485,0,0,0.4734848484848485,0,35.9848484848485)"><svg xmlns="http://www.w3.org/2000/svg" version="1.1" xmlns:xlink="http://www.w3.org/1999/xlink" width="2112" height="1960"><svg version="1.1" xmlns="http://www.w3.org/2000/svg" width="2112" height="1960">
<path d="M0 0 C696.96 0 1393.92 0 2112 0 C2112 646.8 2112 1293.6 2112 1960 C1415.04 1960 718.08 1960 0 1960 C0 1313.2 0 666.4 0 0 Z " fill="#000000" transform="translate(0,0)"></path>
<path d="M0 0 C2.23445628 0.2485235 4.46934099 0.46495874 6.70800781 0.67138672 C17.00257968 1.73739268 26.56562887 4.2358727 36.41894531 7.26904297 C37.0725 7.46369141 37.72605469 7.65833984 38.39941406 7.85888672 C59.08616481 14.04358539 76.99908716 24.30792433 93.41894531 38.26904297 C94.19882813 38.92646484 94.97871094 39.58388672 95.78222656 40.26123047 C100.79411695 44.5908299 105.24409209 49.13143534 109.41894531 54.26904297 C110.16789062 55.18041016 110.91683594 56.09177734 111.68847656 57.03076172 C118.78348714 65.93583799 124.64921256 75.46579366 130.41894531 85.26904297 C126.25901606 89.67919799 121.53412568 92.44261028 116.35644531 95.51904297 C115.44572266 96.07333984 114.535 96.62763672 113.59667969 97.19873047 C112.72205078 97.72208984 111.84742188 98.24544922 110.94628906 98.78466797 C110.14956787 99.26194336 109.35284668 99.73921875 108.53198242 100.23095703 C106.41894531 101.26904297 106.41894531 101.26904297 103.41894531 101.26904297 C101.72201642 98.83969183 100.21628703 96.44866438 98.73144531 93.89404297 C94.72708594 87.25441083 90.50132759 81.14491971 85.41894531 75.26904297 C84.74605469 74.46337891 84.07316406 73.65771484 83.37988281 72.82763672 C59.30102374 44.85238045 24.4452795 32.42895657 -11.58105469 29.26904297 C-14.59198889 29.1239549 -17.59815853 29.08244306 -20.61230469 29.06591797 C-21.86448792 29.05736786 -21.86448792 29.05736786 -23.14196777 29.04864502 C-24.89997112 29.03926212 -26.65799152 29.03268801 -28.41601562 29.02880859 C-31.04687932 29.0191682 -33.67693816 28.98810717 -36.30761719 28.95654297 C-65.69053489 28.77230294 -94.96887797 36.59618272 -116.83105469 57.08154297 C-126.79690439 67.53751643 -132.23068717 79.455062 -132.05395508 93.8515625 C-131.54136718 106.31758903 -127.13944612 117.0752452 -118.20605469 125.83154297 C-112.14012883 130.86497081 -104.69894777 134.00277597 -97.58105469 137.26904297 C-96.55109375 137.75888672 -95.52113281 138.24873047 -94.45996094 138.75341797 C-83.77571735 143.2359486 -72.17729155 145.37253711 -60.83105469 147.45654297 C-60.06335754 147.59977997 -59.2956604 147.74301697 -58.50469971 147.89059448 C-46.51782215 150.10647801 -34.48025751 151.88608306 -22.40136719 153.51123047 C-21.68916519 153.6072159 -20.9769632 153.70320133 -20.24317932 153.80209541 C-13.04954371 154.76963579 -5.85404992 155.72041289 1.34667492 156.63376045 C24.9461304 159.63556967 48.55430488 163.25621419 71.10644531 171.08154297 C72.97574707 171.71938721 72.97574707 171.71938721 74.8828125 172.37011719 C88.76807572 177.24496162 101.49062127 183.20744807 112.41894531 193.26904297 C113.26972656 194.03990234 114.12050781 194.81076172 114.99707031 195.60498047 C127.81355442 207.76912856 136.16631319 224.0284161 136.75488281 241.86669922 C137.05322177 266.14403152 133.29833206 286.85819312 116.41894531 305.26904297 C115.81695313 305.95095703 115.21496094 306.63287109 114.59472656 307.33544922 C91.48681031 332.09047061 54.79385987 341.80630799 22.41894531 346.26904297 C21.3853186 346.4147876 21.3853186 346.4147876 20.33081055 346.56347656 C-34.90424599 353.22348879 -94.44039279 341.52073777 -138.81030273 307.10107422 C-143.94430436 303.04835807 -148.82919565 298.76467431 -153.58105469 294.26904297 C-154.39058594 293.51236328 -155.20011719 292.75568359 -156.03417969 291.97607422 C-165.33937197 283.00739046 -172.99067884 272.82965854 -180.20605469 262.14404297 C-180.63208984 261.51667236 -181.058125 260.88930176 -181.49707031 260.24291992 C-183.42325224 257.32786412 -185.07609346 254.76894663 -185.58105469 251.26904297 C-179.84452778 247.15830595 -174.02848592 243.1639564 -168.14355469 239.26904297 C-167.54075684 238.85920166 -166.93795898 238.44936035 -166.31689453 238.02709961 C-164.78816973 237.02698518 -163.18782625 236.13824579 -161.58105469 235.26904297 C-157.54340873 236.61492495 -156.48330469 239.23264939 -154.39355469 242.70654297 C-150.51741649 248.93176003 -146.35592279 254.6891099 -141.58105469 260.26904297 C-140.89527344 261.07728516 -140.20949219 261.88552734 -139.50292969 262.71826172 C-116.63593527 288.91659884 -86.28881035 304.82021616 -52.58105469 312.26904297 C-51.75911621 312.4651416 -50.93717773 312.66124023 -50.09033203 312.86328125 C-10.04805962 322.20367781 37.98518095 318.7307192 73.65478516 297.37451172 C86.31810289 289.43934666 95.0923829 279.22644211 100.41894531 265.26904297 C100.68578125 264.57166016 100.95261719 263.87427734 101.22753906 263.15576172 C104.53885599 252.49103753 103.0074176 240.58013604 98.16503906 230.71435547 C88.09605781 212.66152259 69.41645565 205.22577305 50.42675781 199.81201172 C22.57241209 192.35327255 -6.58945436 189.19676134 -35.15112305 185.60961914 C-75.17063884 180.55630968 -123.67404611 173.80926147 -151.58105469 141.26904297 C-162.14953903 127.43868075 -166.9936888 111.27839026 -166.89355469 94.01904297 C-166.88864014 93.01123779 -166.88372559 92.00343262 -166.87866211 90.96508789 C-166.53521635 69.00745567 -157.90607503 50.85513691 -142.58105469 35.26904297 C-141.9171875 34.59228516 -141.25332031 33.91552734 -140.56933594 33.21826172 C-104.33902021 -1.21779076 -46.91920131 -5.3117767 0 0 Z " fill="#FCFCFC" transform="translate(1271.5810546875,774.73095703125)"></path>
<path d="M0 0 C2.66583041 2.66583041 3.95898775 4.48188583 5.6796875 7.734375 C6.18951172 8.68892578 6.69933594 9.64347656 7.22460938 10.62695312 C8.04155273 12.17286133 8.04155273 12.17286133 8.875 13.75 C13.31707687 22.05953186 17.83308899 30.31459506 22.5 38.5 C27.56364919 47.39791566 32.48131026 56.36660455 37.34033203 65.37768555 C41.69008351 73.44200129 46.11702704 81.45986086 50.58349609 89.45996094 C52.8210371 93.472263 55.05081285 97.48887269 57.28125 101.50512695 C58.55039472 103.79033515 59.81992498 106.07532928 61.08984375 108.36010742 C64.12884656 113.82792865 67.16564858 119.2969275 70.1943512 124.77046204 C71.58523249 127.28381521 72.97733623 129.79649027 74.36953735 132.30911255 C75.03744946 133.51537637 75.70475143 134.72197824 76.37142944 135.92892456 C77.29557989 137.60189382 78.22195216 139.27363517 79.1484375 140.9453125 C79.67614746 141.89937988 80.20385742 142.85344727 80.74755859 143.83642578 C81.82346461 145.90936936 81.82346461 145.90936936 83 147 C83.35602295 146.33282959 83.7120459 145.66565918 84.07885742 144.97827148 C90.41266094 133.1240411 96.77516848 121.29863582 103.4375 109.625 C108.32698485 101.05186266 113.0459899 92.39644329 117.6875 83.6875 C122.47785996 74.70046872 127.31606332 65.74681473 132.2890625 56.859375 C134.44571971 53.00358355 136.58129374 49.13638197 138.7109375 45.265625 C147.04436384 30.12142119 155.45148162 15.02433206 164 0 C164.33 0 164.66 0 165 0 C165 110.22 165 220.44 165 334 C153.45 334 141.9 334 130 334 C129.67 266.35 129.34 198.7 129 129 C121.575 143.355 121.575 143.355 114 158 C108 169 108 169 105.125 174.21875 C102.70935823 178.64637538 100.37210186 183.11027539 98.0625 187.59375 C97.72524902 188.24843262 97.38799805 188.90311523 97.04052734 189.57763672 C95.37843795 192.80881481 93.72288006 196.04320128 92.07421875 199.28125 C91.46616625 200.46876045 90.85809423 201.65626092 90.25 202.84375 C89.71890625 203.88724609 89.1878125 204.93074219 88.640625 206.00585938 C86.91789811 209.14983594 85.02884833 212.04714357 83 215 C80.15429269 211.62283306 77.96403683 208.31460295 75.96875 204.37890625 C75.1331958 202.74550293 75.1331958 202.74550293 74.28076172 201.07910156 C73.69311035 199.91862305 73.10545898 198.75814453 72.5 197.5625 C71.24590307 195.10876394 69.98680992 192.6576132 68.7265625 190.20703125 C68.25357224 189.28614212 68.25357224 189.28614212 67.77102661 188.34664917 C64.89573475 182.76407608 61.90549661 177.24943477 58.875 171.75 C54.15711366 163.17934418 49.58727691 154.53976388 45.09521484 145.84863281 C44.40032959 144.50623535 44.40032959 144.50623535 43.69140625 143.13671875 C43.29123291 142.36030029 42.89105957 141.58388184 42.47875977 140.78393555 C40.3759987 136.82524569 38.1768957 132.91841225 36 129 C35.67 196.65 35.34 264.3 35 334 C23.45 334 11.9 334 0 334 C0 223.78 0 113.56 0 0 Z " fill="#FCFCFC" transform="translate(647,777)"></path>
<path d="M0 0 C3.00540507 3.00540507 4.61448711 4.70895497 6.55859375 8.2109375 C7.01967529 9.03142578 7.48075684 9.85191406 7.95581055 10.69726562 C8.44476807 11.58091797 8.93372559 12.46457031 9.4375 13.375 C10.51419826 15.28986543 11.59236893 17.20390356 12.671875 19.1171875 C13.22423828 20.0978418 13.77660156 21.07849609 14.34570312 22.08886719 C16.90467673 26.59199607 19.54214725 31.04723009 22.1875 35.5 C27.31926754 44.15062687 32.41809504 52.82003008 37.5 61.5 C42.48336862 70.00987981 47.47675598 78.51356992 52.5 87 C57.43702507 95.34227071 62.34932757 103.69884253 67.25 112.0625 C67.6063855 112.67070587 67.962771 113.27891174 68.32995605 113.9055481 C71.25532466 118.89834093 74.1796791 123.8917276 77.10400391 128.88513184 C79.65220484 133.23619339 82.20078989 137.58702961 84.75 141.9375 C85.10670776 142.54626984 85.46341553 143.15503967 85.83093262 143.78225708 C90.87882663 152.39582488 95.94649352 160.99747822 101.0324707 169.58862305 C106.41392654 178.68530638 111.75363405 187.80641119 117.08984375 196.9296875 C117.77734248 198.10416741 118.46484243 199.27864661 119.15234375 200.453125 C119.75038818 201.47567383 120.34843262 202.49822266 120.96459961 203.55175781 C123.61905618 208.04876448 126.31330688 212.52217813 129 217 C129.495 112.06 129.495 112.06 130 5 C141.55 5 153.1 5 165 5 C165 115.22 165 225.44 165 339 C161.94236269 335.94236269 159.99931498 332.83093144 157.875 329.125 C156.97807463 327.58060716 156.08092169 326.03634647 155.18359375 324.4921875 C154.6819873 323.62561523 154.18038086 322.75904297 153.66357422 321.86621094 C150.79911275 316.93096326 147.90642235 312.0122424 145.0178833 307.09106445 C143.186516 303.9702598 141.35690762 300.84842465 139.52734375 297.7265625 C138.97089172 296.77713776 138.97089172 296.77713776 138.40319824 295.80853271 C136.12600242 291.92273994 133.85025981 288.03609957 131.57550049 284.14888 C122.51569552 268.6257004 122.51569552 268.6257004 113.3125 253.1875 C109.03705223 246.09990303 104.87229805 238.94945906 100.70751953 231.79638672 C94.26227482 220.72667466 87.78202976 209.67761767 81.30062866 198.62905884 C78.683434 194.16702241 76.06966387 189.70299008 73.45703125 185.23828125 C64.95187909 170.67312156 64.95187909 170.67312156 56.3125 156.1875 C52.31113066 149.55801234 48.40243754 142.87564442 44.5 136.1875 C43.87520752 135.11717529 43.25041504 134.04685059 42.60668945 132.9440918 C38.12915051 125.25830102 38.12915051 125.25830102 37 123 C36.67 192.63 36.34 262.26 36 334 C24.12 334 12.24 334 0 334 C0 223.78 0 113.56 0 0 Z " fill="#FBFBFB" transform="translate(1581,777)"></path>
<path d="M0 0 C11.55 0 23.1 0 35 0 C35.33 53.46 35.66 106.92 36 162 C40.95 152.76 45.9 143.52 51 134 C57.5 122.5 57.5 122.5 60.68359375 116.91015625 C64.41434315 110.30873704 67.9945047 103.62773131 71.5625 96.9375 C71.88058624 96.34113739 72.19867249 95.74477478 72.52639771 95.13034058 C73.47861791 93.34474989 74.43073177 91.55910255 75.3828125 89.7734375 C83.4254533 74.69084179 91.69047807 59.72963566 99.96228027 44.77191162 C105.29023235 35.13669404 110.55987155 25.47168045 115.75170898 15.76220703 C116.23969971 14.8545459 116.72769043 13.94688477 117.23046875 13.01171875 C117.85538208 11.84322388 117.85538208 11.84322388 118.49291992 10.65112305 C118.99025635 9.77625244 119.48759277 8.90138184 120 8 C120.31697342 7.31874054 120.63394684 6.63748108 120.96052551 5.93557739 C123.80819127 0.41678239 123.80819127 0.41678239 126.98884583 -0.69551086 C129.44344454 -0.92747618 131.77566711 -0.90099641 134.23828125 -0.78125 C135.11904831 -0.76993042 135.99981537 -0.75861084 136.90727234 -0.74694824 C139.71125994 -0.70227979 142.51006814 -0.60195033 145.3125 -0.5 C147.21672283 -0.45985999 149.12102611 -0.4233601 151.02539062 -0.390625 C155.68557916 -0.3025772 160.34191271 -0.16460791 165 0 C163.59834166 3.68531541 161.94900142 7.12006354 160.0859375 10.59375 C159.49796387 11.69170898 158.90999023 12.78966797 158.30419922 13.92089844 C157.66130491 15.11402504 157.01823354 16.30705625 156.375 17.5 C155.70455897 18.74770477 155.0341494 19.99542643 154.36376953 21.24316406 C148.93188486 31.33679468 143.4035783 41.37635905 137.85205078 51.40454102 C133.61380935 59.06203411 129.41146509 66.7379421 125.25 74.4375 C124.72043701 75.41726807 124.19087402 76.39703613 123.64526367 77.40649414 C122.60216231 79.33672362 121.55911124 81.26698027 120.51611328 83.19726562 C113.09751226 96.91152322 105.58754532 110.57507135 98.04229736 124.21994019 C92.59917526 134.06498668 87.2175852 143.94124537 81.89672852 153.85302734 C81.39584717 154.78324707 80.89496582 155.7134668 80.37890625 156.671875 C79.9413501 157.4875293 79.50379395 158.30318359 79.05297852 159.14355469 C78 161 78 161 77 162 C77.38988907 167.09436804 78.59228129 170.69402267 81.10546875 175.11328125 C81.57883667 175.95772545 81.57883667 175.95772545 82.06176758 176.81922913 C83.09387915 178.65604557 84.1407309 180.48400424 85.1875 182.3125 C86.28707056 184.26202125 87.38263371 186.21376056 88.47810364 188.16558838 C89.2243736 189.49455417 89.97193126 190.82279765 90.7207489 192.15032959 C94.30394848 198.508932 97.75251994 204.93508358 101.1875 211.375 C105.48028536 219.3947612 109.86517135 227.35034933 114.375 235.25 C119.77989493 244.71914364 124.9276691 254.30936235 130.02920532 263.94366455 C134.42487328 272.23955199 138.90420366 280.47243982 143.5625 288.625 C148.61574327 297.4703707 153.49984605 306.39722268 158.3125 315.375 C158.64968048 316.00239075 158.98686096 316.62978149 159.33425903 317.27618408 C160.28396239 319.04474601 161.22996344 320.81529456 162.17578125 322.5859375 C162.72145752 323.6073584 163.26713379 324.6287793 163.8293457 325.68115234 C165 328 165 328 165 329 C151.47 329 137.94 329 124 329 C122.5975 326.31875 121.195 323.6375 119.75 320.875 C114.97203297 311.77581258 110.06911308 302.74838702 105.1328125 293.734375 C103.01000486 289.85609195 100.90148277 285.97053254 98.8046875 282.078125 C93.55070369 272.32708051 88.24308266 262.61863877 82.75 253 C77.0911042 243.08241014 71.73040853 233.02154665 66.40463257 222.92300415 C61.3068627 213.26242877 56.10370414 203.67933676 50.63671875 194.22070312 C45.48794229 185.26723688 40.82672173 176.1707713 36 167 C35.67 220.46 35.34 273.92 35 329 C23.45 329 11.9 329 0 329 C0 220.43 0 111.86 0 0 Z " fill="#FDFDFD" transform="translate(1816,782)"></path>
<path d="M0 0 C54.12 0 108.24 0 164 0 C164 10.23 164 20.46 164 31 C121.43 31 78.86 31 35 31 C35 69.94 35 108.88 35 149 C77.57 149 120.14 149 164 149 C164 159.23 164 169.46 164 180 C121.43 180 78.86 180 35 180 C35 218.94 35 257.88 35 298 C77.57 298 120.14 298 164 298 C164 308.23 164 318.46 164 329 C109.88 329 55.76 329 0 329 C0 220.43 0 111.86 0 0 Z " fill="#FCFCFC" transform="translate(882,782)"></path>
<path d="M0 0 C108.57 0 217.14 0 329 0 C329 10.23 329 20.46 329 31 C280.49 31 231.98 31 182 31 C182 129.34 182 227.68 182 329 C170.45 329 158.9 329 147 329 C147 230.66 147 132.32 147 31 C98.49 31 49.98 31 0 31 C0 20.77 0 10.54 0 0 Z " fill="#FCFCFC" transform="translate(152,782)"></path>
<path d="M0 0 C11.55 0 23.1 0 35 0 C35 108.57 35 217.14 35 329 C23.45 329 11.9 329 0 329 C0 220.43 0 111.86 0 0 Z " fill="#FBFBFB" transform="translate(1476,782)"></path>
<path d="M0 0 C11.55 0 23.1 0 35 0 C35 108.57 35 217.14 35 329 C23.45 329 11.9 329 0 329 C0 220.43 0 111.86 0 0 Z " fill="#FDFDFD" transform="translate(542,782)"></path>
</svg></svg></g></g></svg></g></svg>