<svg width="116" height="60" viewBox="0 0 116 60" fill="none" xmlns="http://www.w3.org/2000/svg">
<path d="M19.44 0.999999V2.68H11.4V19H9.48V2.68H1.44V0.999999H19.44ZM24.7228 0.999999V19H22.8028V0.999999H24.7228ZM37.5684 0.663999V19H35.6484V7.672L33.0804 12.52L30.4884 7.672V19H28.5684V0.663999L33.0804 8.824L37.5684 0.663999ZM50.4122 17.32V19H41.4122V0.999999H50.4122V2.68H43.3322V9.16H50.4122V10.84H43.3322V17.32H50.4122ZM70.2758 14.344C70.2758 18.088 66.0758 19.6 62.4518 19.6C58.2038 19.6 54.7718 18.088 52.5638 14.368L54.0038 13.456C55.8758 16.624 58.8038 17.968 62.4518 17.968C66.0998 17.968 68.4278 16.312 68.4278 14.344C68.4278 8.68 53.6438 13.312 53.6438 5.656C53.6438 2.032 57.5798 0.495999 60.9878 0.495999C64.9958 0.495999 68.0438 1.792 69.9158 5.296L68.4758 6.16C66.8678 3.184 64.3958 2.104 61.0118 2.104C57.6518 2.104 55.4918 3.76 55.4918 5.656C55.4918 11.2 70.2758 6.64 70.2758 14.344ZM75.9103 0.999999V19H73.9903V0.999999H75.9103ZM88.7559 0.999999V19.336L81.6759 7.288V19H79.7559V0.663999L86.8359 12.712V0.999999H88.7559ZM96.7277 10L101.648 19H99.4397L94.5197 10L99.4397 0.999999H101.648L96.7277 10ZM94.5197 0.999999V19H92.5997V0.999999H94.5197Z" fill="white"/>
<path d="M23.92 30.92C23.92 33.632 21.712 35.84 19 35.84H7.84V44H5.92V26H19C21.712 26 23.92 28.208 23.92 30.92ZM22 30.92C22 29.12 20.8 27.68 19 27.68H7.84V34.16H19C20.8 34.16 22 32.72 22 30.92ZM31.3628 35.816L35.8508 44H33.6428L28.7228 35V44H26.8028V26H30.8828C33.5948 26 35.8028 28.208 35.8028 30.92C35.8028 33.464 33.8588 35.576 31.3628 35.816ZM33.8828 30.92C33.8828 29.12 32.6828 27.68 30.8828 27.68H28.7228V34.16H30.8828C32.6828 34.16 33.8828 32.72 33.8828 30.92ZM48.2013 42.32V44H39.2013V26H48.2013V27.68H41.1213V34.16H48.2013V35.84H41.1213V42.32H48.2013ZM59.6168 39.776C59.6168 42.248 58.0088 44.48 55.1288 44.48C52.8728 44.48 50.5928 42.848 50.5928 39.56H52.5128C52.5128 41.72 53.8088 42.8 55.1048 42.8C56.6648 42.8 57.6968 41.288 57.6968 39.68C57.6968 38.432 57.0968 37.136 55.6568 36.368L53.8328 35.384C51.6728 34.232 50.6168 32.072 50.6168 30.08C50.6168 27.704 52.1288 25.52 55.0568 25.52C57.3128 25.52 59.5928 27.104 59.5928 30.224H57.6728C57.6728 28.208 56.3768 27.2 55.0808 27.2C53.4248 27.2 52.5368 28.592 52.5368 30.128C52.5368 31.448 53.1608 32.84 54.5048 33.56L56.3528 34.52C58.5848 35.72 59.6168 37.832 59.6168 39.776ZM71.4747 42.32V44H62.4747V26H71.4747V27.68H64.3947V34.16H71.4747V35.84H64.3947V42.32H71.4747ZM83.8263 26V44.336L76.7463 32.288V44H74.8263V25.664L81.9063 37.712V26H83.8263ZM95.71 26V27.68H92.182V44H90.262V27.68H86.71V26H95.71ZM106.656 39.776C106.656 42.248 105.048 44.48 102.168 44.48C99.9119 44.48 97.6319 42.848 97.6319 39.56H99.5519C99.5519 41.72 100.848 42.8 102.144 42.8C103.704 42.8 104.736 41.288 104.736 39.68C104.736 38.432 104.136 37.136 102.696 36.368L100.872 35.384C98.7119 34.232 97.6559 32.072 97.6559 30.08C97.6559 27.704 99.1679 25.52 102.096 25.52C104.352 25.52 106.632 27.104 106.632 30.224H104.712C104.712 28.208 103.416 27.2 102.12 27.2C100.464 27.2 99.5759 28.592 99.5759 30.128C99.5759 31.448 100.2 32.84 101.544 33.56L103.392 34.52C105.624 35.72 106.656 37.832 106.656 39.776Z" fill="white"/>
</svg>
